<svg xmlns="http://www.w3.org/2000/svg" width="1200" height="630" viewBox="0 0 1200 630">
  <defs>
    <linearGradient id="bg" x1="0" y1="0" x2="1" y2="1">
      <stop offset="0%" stop-color="#fef3e2"/>
      <stop offset="100%" stop-color="#fde2b5"/>
    </linearGradient>
  </defs>
  <rect width="1200" height="630" fill="url(#bg)"/>
  <g opacity="0.06">
    <line x1="40" y1="0" x2="40" y2="630" stroke="#000" stroke-width="1"/>
    <line x1="80" y1="0" x2="80" y2="630" stroke="#000" stroke-width="1"/>
    <line x1="0" y1="40" x2="1200" y2="40" stroke="#000" stroke-width="1"/>
    <line x1="0" y1="80" x2="1200" y2="80" stroke="#000" stroke-width="1"/>
  </g>
  <g transform="translate(140, 130)">
    <rect width="370" height="370" rx="16" fill="#bbada0"/>
    <g transform="translate(15,15)">
      <rect x="0" y="0" width="105" height="105" rx="8" fill="#eee4da"/>
      <text x="52" y="68" text-anchor="middle" font-family="Arial,sans-serif" font-size="44" font-weight="bold" fill="#776e65">2</text>
      <rect x="115" y="0" width="105" height="105" rx="8" fill="#ede0c8"/>
      <text x="167" y="68" text-anchor="middle" font-family="Arial,sans-serif" font-size="44" font-weight="bold" fill="#776e65">4</text>
      <rect x="230" y="0" width="105" height="105" rx="8" fill="#f2b179"/>
      <text x="282" y="68" text-anchor="middle" font-family="Arial,sans-serif" font-size="44" font-weight="bold" fill="#fff">8</text>
      <rect x="0" y="115" width="105" height="105" rx="8" fill="#f59563"/>
      <text x="52" y="183" text-anchor="middle" font-family="Arial,sans-serif" font-size="40" font-weight="bold" fill="#fff">16</text>
      <rect x="115" y="115" width="105" height="105" rx="8" fill="#f67c5f"/>
      <text x="167" y="183" text-anchor="middle" font-family="Arial,sans-serif" font-size="40" font-weight="bold" fill="#fff">32</text>
      <rect x="230" y="115" width="105" height="105" rx="8" fill="#f65e3b"/>
      <text x="282" y="183" text-anchor="middle" font-family="Arial,sans-serif" font-size="40" font-weight="bold" fill="#fff">64</text>
      <rect x="0" y="230" width="105" height="105" rx="8" fill="#edcf72"/>
      <text x="52" y="298" text-anchor="middle" font-family="Arial,sans-serif" font-size="36" font-weight="bold" fill="#fff">128</text>
      <rect x="115" y="230" width="105" height="105" rx="8" fill="#edcc61"/>
      <text x="167" y="298" text-anchor="middle" font-family="Arial,sans-serif" font-size="36" font-weight="bold" fill="#fff">256</text>
      <rect x="230" y="230" width="105" height="105" rx="8" fill="#edc850"/>
      <text x="282" y="298" text-anchor="middle" font-family="Arial,sans-serif" font-size="36" font-weight="bold" fill="#fff">512</text>
    </g>
  </g>
  <text x="620" y="250" font-family="Arial,sans-serif" font-size="72" font-weight="bold" fill="#2d2a26">2048</text>
  <text x="620" y="320" font-family="Arial,sans-serif" font-size="32" fill="#6b6560">Slide · Merge · Reach 2048!</text>
  <text x="620" y="420" font-family="Arial,sans-serif" font-size="28" font-weight="bold" fill="#ff6b35">joy-grid.com</text>
  <g transform="translate(620, 450)">
    <rect width="16" height="16" rx="4" fill="#ff6b35"/>
    <rect x="20" width="16" height="16" rx="4" fill="#4ecdc4"/>
    <rect y="20" width="16" height="16" rx="4" fill="#7c5cbf"/>
    <rect x="20" y="20" width="16" height="16" rx="4" fill="#ffd93d"/>
    <text x="50" y="30" font-family="Arial,sans-serif" font-size="26" font-weight="bold" fill="#2d2a26">Joy Grid</text>
  </g>
</svg>
